<?xml version="1.0" encoding="UTF-8" standalone="no"?>
<svg
   version="1.0"
   width="363.000000pt"
   height="373.000000pt"
   viewBox="0 0 363.000000 373.000000"
   preserveAspectRatio="xMidYMid meet"
   id="svg88"
   sodipodi:docname="dice_v4.svg"
   inkscape:version="1.4.3 (0d15f75, 2025-12-25)"
   inkscape:export-filename="dice_v4.png"
   inkscape:export-xdpi="96"
   inkscape:export-ydpi="96"
   xmlns:inkscape="http://www.inkscape.org/namespaces/inkscape"
   xmlns:sodipodi="http://sodipodi.sourceforge.net/DTD/sodipodi-0.dtd"
   xmlns="http://www.w3.org/2000/svg"
   xmlns:svg="http://www.w3.org/2000/svg">
  <defs
     id="defs88" />
  <sodipodi:namedview
     id="namedview88"
     pagecolor="#ffffff"
     bordercolor="#000000"
     borderopacity="0.25"
     inkscape:showpageshadow="2"
     inkscape:pageopacity="0.0"
     inkscape:pagecheckerboard="0"
     inkscape:deskcolor="#d1d1d1"
     inkscape:document-units="pt"
     inkscape:zoom="1.674933"
     inkscape:cx="242.09924"
     inkscape:cy="248.96519"
     inkscape:window-width="1920"
     inkscape:window-height="1051"
     inkscape:window-x="-9"
     inkscape:window-y="-9"
     inkscape:window-maximized="1"
     inkscape:current-layer="svg88" />
  <metadata
     id="metadata1">
Created by potrace 1.16, written by Peter Selinger 2001-2019
</metadata>
  <g
     transform="translate(0.000000,373.000000) scale(0.100000,-0.100000)"
     fill="#000000"
     stroke="none"
     id="g88">
    <path
       d="M1620 3446 c-58 -18 -186 -61 -285 -95 -99 -34 -315 -107 -480 -162 -165 -56 -327 -114 -360 -130 -100 -49 -176 -135 -219 -247 -19 -51 -21 -75 -20 -242 1 -102 7 -345 13 -540 6 -195 13 -452 17 -570 3 -120 12 -252 20 -299 24 -135 83 -228 189 -301 45 -31 1022 -526 1124 -569 91 -38 187 -55 274 -47 121 11 177 34 402 161 61 34 164 90 230 125 66 35 143 75 170 90 28 15 113 60 190 100 227 118 277 150 333 208 125 130 128 146 147 962 19 797 19 852 0 913 -37 122 -109 206 -229 265 -36 18 -317 117 -624 219 l-557 187 -115 3 c-108 3 -122 1 -220 -31z m325 -56 c60 -16 722 -238 990 -332 118 -41 195 -75 195 -86 0 -17 -46 -51 -100 -75 -30 -14 -149 -62 -265 -107 -115 -45 -250 -100 -300 -120 -49 -21 -142 -58 -205 -83 -63 -25 -158 -62 -210 -83 -91 -35 -100 -37 -215 -38 -119 0 -121 0 -230 43 -125 50 -233 92 -555 216 -428 165 -481 187 -510 212 -17 14 -30 28 -30 32 0 13 61 36 370 140 162 54 369 124 460 156 207 71 389 132 415 138 45 11 124 5 190 -13z m-370 -20 c-44 -16 -298 -103 -565 -193 -267 -91 -493 -168 -502 -172 -25 -10 -32 -43 -15 -69 19 -29 84 -61 267 -131 80 -31 327 -127 550 -213 l405 -157 120 0 c119 1 121 1 240 47 230 89 962 386 1001 406 86 44 104 96 44 127 -16 8 -255 91 -532 184 -511 172 -561 189 -543 190 20 2 1020 -336 1064 -359 55 -27 64 -34 120 -91 56 -56 89 -120 97 -185 9 -84 0 -655 -22 -1319 -9 -290 -25 -360 -100 -452 -44 -54 -90 -85 -229 -158 -61 -32 -128 -68 -150 -80 -22 -13 -78 -43 -125 -67 -47 -25 -158 -84 -247 -132 -89 -47 -167 -86 -172 -86 -5 0 -11 -4 -13 -9 -6 -17 -244 -130 -304 -146 -90 -22 -178 -19 -265 9 -69 23 -1055 509 -1133 559 -46 29 -46 41 2 21 20 -9 49 -20 64 -26 16 -5 28 -14 28 -19 0 -5 7 -9 15 -9 23 0 135 -59 135 -71 0 -6 6 -9 13 -6 17 6 109 -42 102 -53 -3 -6 2 -9 12 -7 27 3 234 -96 228 -110 -2 -7 2 -10 10 -7 11 5 219 -90 235 -106 9 -10 164 -78 211 -94 85 -28 149 4 166 84 12 52 5 1592 -7 1672 -18 119 -75 191 -195 248 -44 21 -303 127 -575 236 -547 219 -570 226 -625 174 -58 -54 -65 -104 -55 -385 8 -203 11 -300 25 -840 3 -104 8 -232 11 -282 3 -62 2 -93 -5 -93 -12 0 -12 0 -16 50 -9 110 -39 1105 -39 1295 1 195 2 205 15 205 6 0 8 9 4 20 -8 26 4 48 16 29 6 -10 9 -10 9 -2 0 6 -4 14 -9 18 -14 8 28 80 75 128 23 23 63 54 90 69 27 14 213 81 414 149 201 67 442 148 535 180 94 32 177 58 185 58 8 0 -21 -13 -65 -29z m-544 -783 c294 -118 552 -223 574 -235 55 -28 104 -79 129 -132 19 -42 20 -73 28 -500 5 -250 7 -635 6 -855 -3 -361 -5 -404 -20 -427 -23 -35 -70 -44 -129 -24 -25 9 -281 132 -570 275 -522 258 -545 271 -597 348 -25 35 -27 44 -11 41 6 -2 14 3 16 11 4 9 0 11 -16 6 -22 -7 -26 4 -22 53 1 15 -2 21 -8 17 -7 -4 -12 8 -13 32 0 21 -2 64 -4 95 -1 32 -5 146 -8 255 -4 109 -8 241 -11 293 -7 147 -20 654 -19 765 0 148 26 193 110 194 18 1 253 -88 565 -212z m-649 -1452 c8 -30 11 -55 7 -55 -5 0 -9 7 -9 15 0 8 -4 15 -8 15 -4 0 -8 8 -9 18 -1 9 -4 27 -8 40 -4 12 -3 22 2 22 5 0 17 -25 25 -55z m28 -86 c0 -13 56 -85 90 -116 14 -12 20 -23 15 -23 -18 0 -125 121 -125 141 0 5 5 9 10 9 6 0 10 -5 10 -11z"
       id="path1" />
    <path
       d="M1895 3340 c-3 -5 -1 -10 4 -10 6 0 11 5 11 10 0 6 -2 10 -4 10 -3 0 -8 -4 -11 -10z"
       id="path2" />
    <path
       d="M1755 3300 c-3 -5 1 -10 10 -10 9 0 13 5 10 10 -3 6 -8 10 -10 10 -2 0 -7 -4 -10 -10z"
       id="path3" />
    <path
       d="M1290 3170 c0 -5 5 -10 10 -10 6 0 10 5 10 10 0 6 -4 10 -10 10 -5 0 -10 -4 -10 -10z"
       id="path4" />
    <path
       d="M3175 2960 c3 -5 11 -10 16 -10 6 0 7 5 4 10 -3 6 -11 10 -16 10 -6 0 -7 -4 -4 -10z"
       id="path5" />
    <path
       d="M440 2945 c0 -8 5 -15 10 -15 6 0 10 7 10 15 0 8 -4 15 -10 15 -5 0 -10 -7 -10 -15z"
       id="path6" />
    <path
       d="M3150 2880 c0 -5 5 -10 10 -10 6 0 10 5 10 10 0 6 -4 10 -10 10 -5 0 -10 -4 -10 -10z"
       id="path7" />
    <path
       d="M3090 2850 c0 -5 5 -10 11 -10 5 0 7 5 4 10 -3 6 -8 10 -11 10 -2 0 -4 -4 -4 -10z"
       id="path8" />
    <path
       d="M360 2840 c0 -5 5 -10 11 -10 5 0 7 5 4 10 -3 6 -8 10 -11 10 -2 0 -4 -4 -4 -10z"
       id="path9" />
    <path
       d="M545 2840 c3 -5 8 -10 11 -10 2 0 4 5 4 10 0 6 -5 10 -11 10 -5 0 -7 -4 -4 -10z"
       id="path10" />
    <path
       d="M3150 2832 c-47 -14 -987 -401 -1076 -442 -75 -35 -134 -98 -165 -176 l-24 -59 -3 -795 c-2 -527 1 -811 8 -844 21 -100 53 -136 120 -136 20 0 30 -5 30 -15 0 -8 5 -15 11 -15 6 0 9 7 5 15 -3 8 0 15 6 15 13 0 167 78 401 203 97 52 177 93 177 91 0 -2 21 10 47 26 26 17 55 30 64 30 10 0 19 4 21 8 2 5 26 20 53 34 28 14 98 50 157 81 58 30 109 53 112 49 3 -3 6 0 6 6 0 6 13 18 29 26 34 18 97 101 112 148 6 18 13 40 17 48 15 40 19 103 26 430 4 162 12 446 18 630 19 524 15 569 -43 612 -28 21 -86 37 -109 30z m87 -42 c10 0 37 -58 44 -93 8 -39 3 -285 -21 -1027 -14 -441 -18 -503 -36 -556 -20 -59 -64 -126 -102 -152 -27 -20 -235 -131 -527 -282 -88 -45 -241 -124 -340 -175 -99 -52 -197 -97 -218 -100 -45 -9 -78 10 -104 58 -17 30 -18 87 -18 867 l0 835 33 67 c19 39 46 77 67 92 32 25 173 86 575 251 85 35 227 94 315 131 214 89 261 104 299 93 17 -5 32 -9 33 -9z"
       id="path11" />
    <path
       d="M3200 1434 c0 -8 5 -12 10 -9 6 4 8 11 5 16 -9 14 -15 11 -15 -7z"
       id="path12" />
    <path
       d="M3000 1390 c0 -5 5 -10 10 -10 6 0 10 5 10 10 0 6 -4 10 -10 10 -5 0 -10 -4 -10 -10z"
       id="path13" />
    <path
       d="M3120 1380 c0 -5 5 -10 10 -10 6 0 10 5 10 10 0 6 -4 10 -10 10 -5 0 -10 -4 -10 -10z"
       id="path14" />
    <path
       d="M3060 1260 c0 -5 5 -10 10 -10 6 0 10 5 10 10 0 6 -4 10 -10 10 -5 0 -10 -4 -10 -10z"
       id="path15" />
    <path
       d="M3095 1170 c3 -5 8 -10 11 -10 2 0 4 5 4 10 0 6 -5 10 -11 10 -5 0 -7 -4 -4 -10z"
       id="path16" />
    <path
       d="M2890 1110 c0 -5 5 -10 10 -10 6 0 10 5 10 10 0 6 -4 10 -10 10 -5 0 -10 -4 -10 -10z"
       id="path17" />
    <path
       d="M3055 1110 c-3 -5 -1 -10 4 -10 6 0 11 5 11 10 0 6 -2 10 -4 10 -3 0 -8 -4 -11 -10z"
       id="path18" />
    <path
       d="M3180 1109 c0 -5 5 -7 10 -4 6 3 10 8 10 11 0 2 -4 4 -10 4 -5 0 -10 -5 -10 -11z"
       id="path19" />
    <path
       d="M3178 1083 c7 -3 16 -2 19 1 4 3 -2 6 -13 5 -11 0 -14 -3 -6 -6z"
       id="path20" />
    <path
       d="M2970 1030 c0 -5 5 -10 10 -10 6 0 10 5 10 10 0 6 -4 10 -10 10 -5 0 -10 -4 -10 -10z"
       id="path21" />
    <path
       d="M3090 1020 c0 -6 7 -10 15 -10 8 0 15 2 15 4 0 2 -7 6 -15 10 -8 3 -15 1 -15 -4z"
       id="path22" />
    <path
       d="M3125 1000 c-3 -5 -1 -10 4 -10 6 0 11 5 11 10 0 6 -2 10 -4 10 -3 0 -8 -4 -11 -10z"
       id="path23" />
    <path
       d="M2425 990 c-3 -5 1 -10 10 -10 9 0 13 5 10 10 -3 6 -8 10 -10 10 -2 0 -7 -4 -10 -10z"
       id="path24" />
    <path
       d="M2890 960 c0 -5 7 -10 16 -10 8 0 12 5 9 10 -3 6 -10 10 -16 10 -5 0 -9 -4 -9 -10z"
       id="path25" />
    <path
       d="M2715 940 c3 -5 8 -10 11 -10 2 0 4 5 4 10 0 6 -5 10 -11 10 -5 0 -7 -4 -4 -10z"
       id="path26" />
    <path
       d="M3020 940 c0 -5 5 -10 11 -10 5 0 7 5 4 10 -3 6 -8 10 -11 10 -2 0 -4 -4 -4 -10z"
       id="path27" />
    <path
       d="M1960 850 c0 -5 5 -10 10 -10 6 0 10 5 10 10 0 6 -4 10 -10 10 -5 0 -10 -4 -10 -10z"
       id="path28" />
    <path
       d="M2130 800 c0 -5 5 -10 10 -10 6 0 10 5 10 10 0 6 -4 10 -10 10 -5 0 -10 -4 -10 -10z"
       id="path29" />
    <path
       d="M1960 730 c0 -5 5 -10 10 -10 6 0 10 5 10 10 0 6 -4 10 -10 10 -5 0 -10 -4 -10 -10z"
       id="path30" />
    <path
       d="M2045 690 c4 -6 11 -8 16 -5 14 9 11 15 -7 15 -8 0 -12 -5 -9 -10z"
       id="path31" />
    <path
       d="M2400 650 c0 -5 5 -10 10 -10 6 0 10 5 10 10 0 6 -4 10 -10 10 -5 0 -10 -4 -10 -10z"
       id="path32" />
    <path
       d="M2200 599 c0 -5 5 -7 10 -4 6 3 10 8 10 11 0 2 -4 4 -10 4 -5 0 -10 -5 -10 -11z"
       id="path33" />
    <path
       d="M2360 600 c0 -5 5 -10 10 -10 6 0 10 5 10 10 0 6 -4 10 -10 10 -5 0 -10 -4 -10 -10z"
       id="path34" />
    <path
       d="M1960 464 c0 -10 31 -36 37 -31 3 3 -2 13 -10 22 -16 15 -27 19 -27 9z"
       id="path35" />
    <path
       d="M2045 450 c-3 -5 -1 -10 4 -10 6 0 11 5 11 10 0 6 -2 10 -4 10 -3 0 -8 -4 -11 -10z"
       id="path36" />
    <path
       d="M1865 460 c-3 -5 -1 -10 4 -10 6 0 11 5 11 10 0 6 -2 10 -4 10 -3 0 -8 -4 -11 -10z"
       id="path37" />
    <path
       d="M1775 389 c-11 -17 1 -21 15 -4 8 9 8 15 2 15 -6 0 -14 -5 -17 -11z"
       id="path38" />
    <path
       d="M1835 380 c3 -5 11 -10 16 -10 6 0 7 5 4 10 -3 6 -11 10 -16 10 -6 0 -7 -4 -4 -10z"
       id="path39" />
    <path
       d="M1800 356 c0 -9 5 -16 10 -16 6 0 10 4 10 9 0 6 -4 13 -10 16 -5 3 -10 -1 -10 -9z"
       id="path40" />
    <path
       d="M1904 355 c-4 -9 -2 -21 3 -26 7 -7 12 -3 16 10 6 25 -11 39 -19 16z"
       id="path41" />
    <path
       d="M1680 344 c0 -8 5 -12 10 -9 6 3 10 10 10 16 0 5 -4 9 -10 9 -5 0 -10 -7 -10 -16z"
       id="path42" />
    <path
       d="M1855 350 c-3 -5 -1 -10 4 -10 6 0 11 5 11 10 0 6 -2 10 -4 10 -3 0 -8 -4 -11 -10z"
       id="path43" />
    <path
       d="M1952 348 c-14 -14 -16 -28 -3 -28 5 0 11 9 14 20 6 23 5 24 -11 8z"
       id="path44" />
    <path
       d="M1990 350 c0 -5 7 -10 16 -10 8 0 12 5 9 10 -3 6 -10 10 -16 10 -5 0 -9 -4 -9 -10z"
       id="path45" />
    <path
       d="M1725 340 c-3 -5 -1 -10 4 -10 6 0 11 5 11 10 0 6 -2 10 -4 10 -3 0 -8 -4 -11 -10z"
       id="path46" />
    <path
       d="M1760 320 c0 -5 10 -10 23 -10 18 0 19 2 7 10 -19 13 -30 13 -30 0z"
       id="path47" />
    <path
       d="M1825 320 c3 -5 11 -10 16 -10 6 0 7 5 4 10 -3 6 -11 10 -16 10 -6 0 -7 -4 -4 -10z"
       id="path48" />
    <path
       d="M1865 320 c-3 -5 1 -13 10 -16 22 -9 29 1 11 15 -10 8 -16 9 -21 1z"
       id="path49" />
    <path
       d="M435 2280 c3 -5 8 -10 11 -10 2 0 4 5 4 10 0 6 -5 10 -11 10 -5 0 -7 -4 -4 -10z"
       id="path50" />
    <path
       d="M495 1951 c-3 -5 -1 -12 5 -16 5 -3 10 1 10 9 0 18 -6 21 -15 7z"
       id="path51" />
    <path
       d="M410 1870 c0 -5 5 -10 10 -10 6 0 10 5 10 10 0 6 -4 10 -10 10 -5 0 -10 -4 -10 -10z"
       id="path52" />
    <path
       d="M555 1681 c-3 -5 -1 -12 5 -16 5 -3 10 1 10 9 0 18 -6 21 -15 7z"
       id="path53" />
    <path
       d="M400 1540 c0 -5 5 -10 10 -10 6 0 10 5 10 10 0 6 -4 10 -10 10 -5 0 -10 -4 -10 -10z"
       id="path54" />
    <path
       d="M755 1421 c-6 -11 9 -23 19 -14 9 9 7 23 -3 23 -6 0 -12 -4 -16 -9z"
       id="path55" />
    <path
       d="M410 1410 c0 -5 4 -10 9 -10 6 0 13 5 16 10 3 6 -1 10 -9 10 -9 0 -16 -4 -16 -10z"
       id="path56" />
    <path
       d="M610 1400 c0 -5 5 -10 10 -10 6 0 10 5 10 10 0 6 -4 10 -10 10 -5 0 -10 -4 -10 -10z"
       id="path57" />
    <path
       d="M500 1370 c0 -5 5 -10 10 -10 6 0 10 5 10 10 0 6 -4 10 -10 10 -5 0 -10 -4 -10 -10z"
       id="path58" />
    <path
       d="M420 1340 c0 -5 5 -10 10 -10 6 0 10 5 10 10 0 6 -4 10 -10 10 -5 0 -10 -4 -10 -10z"
       id="path59" />
    <path
       d="M410 1300 c0 -5 5 -10 10 -10 6 0 10 5 10 10 0 6 -4 10 -10 10 -5 0 -10 -4 -10 -10z"
       id="path60" />
    <path
       d="M410 1250 c0 -5 5 -10 10 -10 6 0 10 5 10 10 0 6 -4 10 -10 10 -5 0 -10 -4 -10 -10z"
       id="path61" />
    <path
       d="M435 1210 c3 -5 8 -10 11 -10 2 0 4 5 4 10 0 6 -5 10 -11 10 -5 0 -7 -4 -4 -10z"
       id="path62" />
    <path
       d="M440 1160 c0 -5 5 -10 10 -10 6 0 10 5 10 10 0 6 -4 10 -10 10 -5 0 -10 -4 -10 -10z"
       id="path63" />
    <path
       d="M645 1160 c3 -5 10 -10 16 -10 5 0 9 5 9 10 0 6 -7 10 -16 10 -8 0 -12 -4 -9 -10z"
       id="path64" />
    <path
       d="M490 1150 c0 -5 5 -10 10 -10 6 0 10 5 10 10 0 6 -4 10 -10 10 -5 0 -10 -4 -10 -10z"
       id="path65" />
    <path
       d="M950 1150 c0 -5 5 -10 10 -10 6 0 10 5 10 10 0 6 -4 10 -10 10 -5 0 -10 -4 -10 -10z"
       id="path66" />
    <path
       d="M440 1120 c0 -5 5 -10 10 -10 6 0 10 5 10 10 0 6 -4 10 -10 10 -5 0 -10 -4 -10 -10z"
       id="path67" />
    <path
       d="M470 1060 c0 -5 5 -10 10 -10 6 0 10 5 10 10 0 6 -4 10 -10 10 -5 0 -10 -4 -10 -10z"
       id="path68" />
    <path
       d="M515 1060 c-3 -5 -1 -10 4 -10 6 0 11 5 11 10 0 6 -2 10 -4 10 -3 0 -8 -4 -11 -10z"
       id="path69" />
    <path
       d="M480 1020 c0 -5 7 -10 16 -10 8 0 12 5 9 10 -3 6 -10 10 -16 10 -5 0 -9 -4 -9 -10z"
       id="path70" />
    <path
       d="M530 1020 c0 -5 5 -10 10 -10 6 0 10 5 10 10 0 6 -4 10 -10 10 -5 0 -10 -4 -10 -10z"
       id="path71" />
    <path
       d="M606 1011 c-4 -5 -2 -12 3 -15 5 -4 12 -2 15 3 4 5 2 12 -3 15 -5 4 -12 2 -15 -3z"
       id="path72" />
    <path
       d="M530 976 c0 -2 7 -9 15 -16 9 -7 15 -8 15 -2 0 5 -7 12 -15 16 -8 3 -15 4 -15 2z"
       id="path73" />
    <path
       d="M785 960 c-3 -5 -1 -10 4 -10 6 0 11 5 11 10 0 6 -2 10 -4 10 -3 0 -8 -4 -11 -10z"
       id="path74" />
    <path
       d="M580 940 c0 -5 7 -10 16 -10 8 0 12 5 9 10 -3 6 -10 10 -16 10 -5 0 -9 -4 -9 -10z"
       id="path75" />
    <path
       d="M660 900 c0 -5 5 -10 10 -10 6 0 10 5 10 10 0 6 -4 10 -10 10 -5 0 -10 -4 -10 -10z"
       id="path76" />
    <path
       d="M860 859 c0 -5 5 -7 10 -4 6 3 10 8 10 11 0 2 -4 4 -10 4 -5 0 -10 -5 -10 -11z"
       id="path77" />
    <path
       d="M1170 850 c0 -5 5 -10 10 -10 6 0 10 5 10 10 0 6 -4 10 -10 10 -5 0 -10 -4 -10 -10z"
       id="path78" />
    <path
       d="M1170 670 c0 -5 5 -10 10 -10 6 0 10 5 10 10 0 6 -4 10 -10 10 -5 0 -10 -4 -10 -10z"
       id="path79" />
    <path
       d="M1290 669 c0 -5 5 -7 10 -4 6 3 10 8 10 11 0 2 -4 4 -10 4 -5 0 -10 -5 -10 -11z"
       id="path80" />
    <path
       d="M1710 660 c0 -5 5 -10 11 -10 5 0 7 5 4 10 -3 6 -8 10 -11 10 -2 0 -4 -4 -4 -10z"
       id="path81" />
    <path
       d="M1570 460 c0 -5 5 -10 10 -10 6 0 10 5 10 10 0 6 -4 10 -10 10 -5 0 -10 -4 -10 -10z"
       id="path82" />
    <path
       id="path88"
       d="m 2634.6387,1.7089844 c -1.2091,-0.038251 -2.4092,-0.078312 -3.6182,-0.1171875 h -0.015 l -0.3223,-0.5126953 c 1.319,0.2102241 2.636,0.4194744 3.9551,0.6298828 z" />
  </g>
</svg>
