<svg xmlns="http://www.w3.org/2000/svg" width="484" height="497.333" viewBox="0 0 363 373"><path d="M162 28.4c-5.8 1.8-18.6 6.1-28.5 9.5s-31.5 10.7-48 16.2c-16.5 5.6-32.7 11.4-36 13-10 4.9-17.6 13.5-21.9 24.7-1.9 5.1-2.1 7.5-2 24.2.1 10.2.7 34.5 1.3 54s1.3 45.2 1.7 57c.3 12 1.2 25.2 2 29.9 2.4 13.5 8.3 22.8 18.9 30.1 4.5 3.1 102.2 52.6 112.4 56.9 9.1 3.8 18.7 5.5 27.4 4.7 12.1-1.1 17.7-3.4 40.2-16.1 6.1-3.4 16.4-9 23-12.5s14.3-7.5 17-9c2.8-1.5 11.3-6 19-10 22.7-11.8 27.7-15 33.3-20.8 12.5-13 12.8-14.6 14.7-96.2 1.9-79.7 1.9-85.2 0-91.3-3.7-12.2-10.9-20.6-22.9-26.5-3.6-1.8-31.7-11.7-62.4-21.9l-55.7-18.7-11.5-.3c-10.8-.3-12.2-.1-22 3.1m32.5 5.6c6 1.6 72.2 23.8 99 33.2 11.8 4.1 19.5 7.5 19.5 8.6 0 1.7-4.6 5.1-10 7.5-3 1.4-14.9 6.2-26.5 10.7-11.5 4.5-25 10-30 12-4.9 2.1-14.2 5.8-20.5 8.3s-15.8 6.2-21 8.3c-9.1 3.5-10 3.7-21.5 3.8-11.9 0-12.1 0-23-4.3-12.5-5-23.3-9.2-55.5-21.6C62.2 84 56.9 81.8 54 79.3c-1.7-1.4-3-2.8-3-3.2 0-1.3 6.1-3.6 37-14 16.2-5.4 36.9-12.4 46-15.6 20.7-7.1 38.9-13.2 41.5-13.8 4.5-1.1 12.4-.5 19 1.3m-37 2c-4.4 1.6-29.8 10.3-56.5 19.3-26.7 9.1-49.3 16.8-50.2 17.2-2.5 1-3.2 4.3-1.5 6.9 1.9 2.9 8.4 6.1 26.7 13.1 8 3.1 32.7 12.7 55 21.3l40.5 15.7h12c11.9-.1 12.1-.1 24-4.7 23-8.9 96.2-38.6 100.1-40.6 8.6-4.4 10.4-9.6 4.4-12.7-1.6-.8-25.5-9.1-53.2-18.4-51.1-17.2-56.1-18.9-54.3-19 2-.2 102 33.6 106.4 35.9 5.5 2.7 6.4 3.4 12 9.1 5.6 5.6 8.9 12 9.7 18.5.9 8.4 0 65.5-2.2 131.9-.9 29-2.5 36-10 45.2-4.4 5.4-9 8.5-22.9 15.8-6.1 3.2-12.8 6.8-15 8-2.2 1.3-7.8 4.3-12.5 6.7-4.7 2.5-15.8 8.4-24.7 13.2-8.9 4.7-16.7 8.6-17.2 8.6s-1.1.4-1.3.9c-.6 1.7-24.4 13-30.4 14.6-9 2.2-17.8 1.9-26.5-.9-6.9-2.3-105.5-50.9-113.3-55.9-4.6-2.9-4.6-4.1.2-2.1 2 .9 4.9 2 6.4 2.6 1.6.5 2.8 1.4 2.8 1.9s.7.9 1.5.9c2.3 0 13.5 5.9 13.5 7.1 0 .6.6.9 1.3.6 1.7-.6 10.9 4.2 10.2 5.3-.3.6.2.9 1.2.7 2.7-.3 23.4 9.6 22.8 11-.2.7.2 1 1 .7 1.1-.5 21.9 9 23.5 10.6.9 1 16.4 7.8 21.1 9.4 8.5 2.8 14.9-.4 16.6-8.4 1.2-5.2.5-159.2-.7-167.2-1.8-11.9-7.5-19.1-19.5-24.8-4.4-2.1-30.3-12.7-57.5-23.6C46.3 88.5 44 87.8 38.5 93c-5.8 5.4-6.5 10.4-5.5 38.5.8 20.3 1.1 30 2.5 84 .3 10.4.8 23.2 1.1 28.2.3 6.2.2 9.3-.5 9.3-1.2 0-1.2 0-1.6-5-.9-11-3.9-110.5-3.9-129.5.1-19.5.2-20.5 1.5-20.5.6 0 .8-.9.4-2-.8-2.6.4-4.8 1.6-2.9.6 1 .9 1 .9.2 0-.6-.4-1.4-.9-1.8-1.4-.8 2.8-8 7.5-12.8 2.3-2.3 6.3-5.4 9-6.9 2.7-1.4 21.3-8.1 41.4-14.9 20.1-6.7 44.2-14.8 53.5-18 9.4-3.2 17.7-5.8 18.5-5.8s-2.1 1.3-6.5 2.9m-54.4 78.3c29.4 11.8 55.2 22.3 57.4 23.5 5.5 2.8 10.4 7.9 12.9 13.2 1.9 4.2 2 7.3 2.8 50 .5 25 .7 63.5.6 85.5-.3 36.1-.5 40.4-2 42.7-2.3 3.5-7 4.4-12.9 2.4-2.5-.9-28.1-13.2-57-27.5-52.2-25.8-54.5-27.1-59.7-34.8-2.5-3.5-2.7-4.4-1.1-4.1.6.2 1.4-.3 1.6-1.1.4-.9 0-1.1-1.6-.6-2.2.7-2.6-.4-2.2-5.3.1-1.5-.2-2.1-.8-1.7-.7.4-1.2-.8-1.3-3.2 0-2.1-.2-6.4-.4-9.5-.1-3.2-.5-14.6-.8-25.5-.4-10.9-.8-24.1-1.1-29.3-.7-14.7-2-65.4-1.9-76.5 0-14.8 2.6-19.3 11-19.4 1.8-.1 25.3 8.8 56.5 21.2M38.2 259.5c.8 3 1.1 5.5.7 5.5-.5 0-.9-.7-.9-1.5s-.4-1.5-.8-1.5-.8-.8-.9-1.8c-.1-.9-.4-2.7-.8-4-.4-1.2-.3-2.2.2-2.2s1.7 2.5 2.5 5.5m2.8 8.6c0 1.3 5.6 8.5 9 11.6 1.4 1.2 2 2.3 1.5 2.3-1.8 0-12.5-12.1-12.5-14.1 0-.5.5-.9 1-.9.6 0 1 .5 1 1.1"/><path d="M189.5 39c-.3.5-.1 1 .4 1 .6 0 1.1-.5 1.1-1 0-.6-.2-1-.4-1-.3 0-.8.4-1.1 1M175.5 43c-.3.5.1 1 1 1s1.3-.5 1-1c-.3-.6-.8-1-1-1s-.7.4-1 1M129 56c0 .5.5 1 1 1 .6 0 1-.5 1-1 0-.6-.4-1-1-1-.5 0-1 .4-1 1M317.5 77c.3.5 1.1 1 1.6 1 .6 0 .7-.5.4-1-.3-.6-1.1-1-1.6-1-.6 0-.7.4-.4 1M44 78.5c0 .8.5 1.5 1 1.5.6 0 1-.7 1-1.5s-.4-1.5-1-1.5c-.5 0-1 .7-1 1.5M315 85c0 .5.5 1 1 1 .6 0 1-.5 1-1 0-.6-.4-1-1-1-.5 0-1 .4-1 1M309 88c0 .5.5 1 1.1 1 .5 0 .7-.5.4-1-.3-.6-.8-1-1.1-1-.2 0-.4.4-.4 1M36 89c0 .5.5 1 1.1 1 .5 0 .7-.5.4-1-.3-.6-.8-1-1.1-1-.2 0-.4.4-.4 1M54.5 89c.3.5.8 1 1.1 1 .2 0 .4-.5.4-1 0-.6-.5-1-1.1-1-.5 0-.7.4-.4 1M315 89.8c-4.7 1.4-98.7 40.1-107.6 44.2-7.5 3.5-13.4 9.8-16.5 17.6l-2.4 5.9-.3 79.5c-.2 52.7.1 81.1.8 84.4 2.1 10 5.3 13.6 12 13.6q3 0 3 1.5c0 .8.5 1.5 1.1 1.5s.9-.7.5-1.5c-.3-.8 0-1.5.6-1.5 1.3 0 16.7-7.8 40.1-20.3 9.7-5.2 17.7-9.3 17.7-9.1s2.1-1 4.7-2.6c2.6-1.7 5.5-3 6.4-3 1 0 1.9-.4 2.1-.8.2-.5 2.6-2 5.3-3.4 2.8-1.4 9.8-5 15.7-8.1 5.8-3 10.9-5.3 11.2-4.9.3.3.6 0 .6-.6s1.3-1.8 2.9-2.6c3.4-1.8 9.7-10.1 11.2-14.8.6-1.8 1.3-4 1.7-4.8 1.5-4 1.9-10.3 2.6-43 .4-16.2 1.2-44.6 1.8-63 1.9-52.4 1.5-56.9-4.3-61.2-2.8-2.1-8.6-3.7-10.9-3m8.7 4.2c1 0 3.7 5.8 4.4 9.3.8 3.9.3 28.5-2.1 102.7-1.4 44.1-1.8 50.3-3.6 55.6-2 5.9-6.4 12.6-10.2 15.2-2.7 2-23.5 13.1-52.7 28.2-8.8 4.5-24.1 12.4-34 17.5-9.9 5.2-19.7 9.7-21.8 10-4.5.9-7.8-1-10.4-5.8-1.7-3-1.8-8.7-1.8-86.7v-83.5l3.3-6.7c1.9-3.9 4.6-7.7 6.7-9.2 3.2-2.5 17.3-8.6 57.5-25.1 8.5-3.5 22.7-9.4 31.5-13.1 21.4-8.9 26.1-10.4 29.9-9.3 1.7.5 3.2.9 3.3.9"/><path d="M320 229.6c0 .8.5 1.2 1 .9.6-.4.8-1.1.5-1.6-.9-1.4-1.5-1.1-1.5.7M300 234c0 .5.5 1 1 1 .6 0 1-.5 1-1 0-.6-.4-1-1-1-.5 0-1 .4-1 1M312 235c0 .5.5 1 1 1 .6 0 1-.5 1-1 0-.6-.4-1-1-1-.5 0-1 .4-1 1M306 247c0 .5.5 1 1 1 .6 0 1-.5 1-1 0-.6-.4-1-1-1-.5 0-1 .4-1 1M309.5 256c.3.5.8 1 1.1 1 .2 0 .4-.5.4-1 0-.6-.5-1-1.1-1-.5 0-.7.4-.4 1M289 262c0 .5.5 1 1 1 .6 0 1-.5 1-1 0-.6-.4-1-1-1-.5 0-1 .4-1 1M305.5 262c-.3.5-.1 1 .4 1 .6 0 1.1-.5 1.1-1 0-.6-.2-1-.4-1-.3 0-.8.4-1.1 1M318 262.1c0 .5.5.7 1 .4.6-.3 1-.8 1-1.1 0-.2-.4-.4-1-.4-.5 0-1 .5-1 1.1M317.8 264.7c.7.3 1.6.2 1.9-.1.4-.3-.2-.6-1.3-.5-1.1 0-1.4.3-.6.6M297 270c0 .5.5 1 1 1 .6 0 1-.5 1-1 0-.6-.4-1-1-1-.5 0-1 .4-1 1M309 271c0 .6.7 1 1.5 1s1.5-.2 1.5-.4-.7-.6-1.5-1c-.8-.3-1.5-.1-1.5.4M312.5 273c-.3.5-.1 1 .4 1 .6 0 1.1-.5 1.1-1 0-.6-.2-1-.4-1-.3 0-.8.4-1.1 1M242.5 274c-.3.5.1 1 1 1s1.3-.5 1-1c-.3-.6-.8-1-1-1s-.7.4-1 1M289 277c0 .5.7 1 1.6 1 .8 0 1.2-.5.9-1-.3-.6-1-1-1.6-1-.5 0-.9.4-.9 1M271.5 279c.3.5.8 1 1.1 1 .2 0 .4-.5.4-1 0-.6-.5-1-1.1-1-.5 0-.7.4-.4 1M302 279c0 .5.5 1 1.1 1 .5 0 .7-.5.4-1-.3-.6-.8-1-1.1-1-.2 0-.4.4-.4 1M196 288c0 .5.5 1 1 1 .6 0 1-.5 1-1 0-.6-.4-1-1-1-.5 0-1 .4-1 1M213 293c0 .5.5 1 1 1 .6 0 1-.5 1-1 0-.6-.4-1-1-1-.5 0-1 .4-1 1M196 300c0 .5.5 1 1 1 .6 0 1-.5 1-1 0-.6-.4-1-1-1-.5 0-1 .4-1 1M204.5 304c.4.6 1.1.8 1.6.5 1.4-.9 1.1-1.5-.7-1.5-.8 0-1.2.5-.9 1M240 308c0 .5.5 1 1 1 .6 0 1-.5 1-1 0-.6-.4-1-1-1-.5 0-1 .4-1 1M220 313.1c0 .5.5.7 1 .4.6-.3 1-.8 1-1.1 0-.2-.4-.4-1-.4-.5 0-1 .5-1 1.1M236 313c0 .5.5 1 1 1 .6 0 1-.5 1-1 0-.6-.4-1-1-1-.5 0-1 .4-1 1M196 326.6c0 1 3.1 3.6 3.7 3.1.3-.3-.2-1.3-1-2.2-1.6-1.5-2.7-1.9-2.7-.9M204.5 328c-.3.5-.1 1 .4 1 .6 0 1.1-.5 1.1-1 0-.6-.2-1-.4-1-.3 0-.8.4-1.1 1M186.5 327c-.3.5-.1 1 .4 1 .6 0 1.1-.5 1.1-1 0-.6-.2-1-.4-1-.3 0-.8.4-1.1 1M177.5 334.1c-1.1 1.7.1 2.1 1.5.4.8-.9.8-1.5.2-1.5s-1.4.5-1.7 1.1M183.5 335c.3.5 1.1 1 1.6 1 .6 0 .7-.5.4-1-.3-.6-1.1-1-1.6-1-.6 0-.7.4-.4 1M180 337.4c0 .9.5 1.6 1 1.6.6 0 1-.4 1-.9 0-.6-.4-1.3-1-1.6-.5-.3-1 .1-1 .9M190.4 337.5c-.4.9-.2 2.1.3 2.6.7.7 1.2.3 1.6-1 .6-2.5-1.1-3.9-1.9-1.6M168 338.6c0 .8.5 1.2 1 .9.6-.3 1-1 1-1.6 0-.5-.4-.9-1-.9-.5 0-1 .7-1 1.6M185.5 338c-.3.5-.1 1 .4 1 .6 0 1.1-.5 1.1-1 0-.6-.2-1-.4-1-.3 0-.8.4-1.1 1M195.2 338.2c-1.4 1.4-1.6 2.8-.3 2.8.5 0 1.1-.9 1.4-2 .6-2.3.5-2.4-1.1-.8M199 338c0 .5.7 1 1.6 1 .8 0 1.2-.5.9-1-.3-.6-1-1-1.6-1-.5 0-.9.4-.9 1M172.5 339c-.3.5-.1 1 .4 1 .6 0 1.1-.5 1.1-1 0-.6-.2-1-.4-1-.3 0-.8.4-1.1 1M176 341c0 .5 1 1 2.3 1 1.8 0 1.9-.2.7-1-1.9-1.3-3-1.3-3 0M182.5 341c.3.5 1.1 1 1.6 1 .6 0 .7-.5.4-1-.3-.6-1.1-1-1.6-1-.6 0-.7.4-.4 1M186.5 341c-.3.5.1 1.3 1 1.6 2.2.9 2.9-.1 1.1-1.5-1-.8-1.6-.9-2.1-.1M43.5 145c.3.5.8 1 1.1 1 .2 0 .4-.5.4-1 0-.6-.5-1-1.1-1-.5 0-.7.4-.4 1M49.5 177.9c-.3.5-.1 1.2.5 1.6.5.3 1-.1 1-.9 0-1.8-.6-2.1-1.5-.7M41 186c0 .5.5 1 1 1 .6 0 1-.5 1-1 0-.6-.4-1-1-1-.5 0-1 .4-1 1M55.5 204.9c-.3.5-.1 1.2.5 1.6.5.3 1-.1 1-.9 0-1.8-.6-2.1-1.5-.7M40 219c0 .5.5 1 1 1 .6 0 1-.5 1-1 0-.6-.4-1-1-1-.5 0-1 .4-1 1M75.5 230.9c-.6 1.1.9 2.3 1.9 1.4.9-.9.7-2.3-.3-2.3-.6 0-1.2.4-1.6.9M41 232c0 .5.4 1 .9 1 .6 0 1.3-.5 1.6-1 .3-.6-.1-1-.9-1-.9 0-1.6.4-1.6 1M61 233c0 .5.5 1 1 1 .6 0 1-.5 1-1 0-.6-.4-1-1-1-.5 0-1 .4-1 1M50 236c0 .5.5 1 1 1 .6 0 1-.5 1-1 0-.6-.4-1-1-1-.5 0-1 .4-1 1M42 239c0 .5.5 1 1 1 .6 0 1-.5 1-1 0-.6-.4-1-1-1-.5 0-1 .4-1 1M41 243c0 .5.5 1 1 1 .6 0 1-.5 1-1 0-.6-.4-1-1-1-.5 0-1 .4-1 1M41 248c0 .5.5 1 1 1 .6 0 1-.5 1-1 0-.6-.4-1-1-1-.5 0-1 .4-1 1M43.5 252c.3.5.8 1 1.1 1 .2 0 .4-.5.4-1 0-.6-.5-1-1.1-1-.5 0-.7.4-.4 1M44 257c0 .5.5 1 1 1 .6 0 1-.5 1-1 0-.6-.4-1-1-1-.5 0-1 .4-1 1M64.5 257c.3.5 1 1 1.6 1 .5 0 .9-.5.9-1 0-.6-.7-1-1.6-1-.8 0-1.2.4-.9 1M49 258c0 .5.5 1 1 1 .6 0 1-.5 1-1 0-.6-.4-1-1-1-.5 0-1 .4-1 1M95 258c0 .5.5 1 1 1 .6 0 1-.5 1-1 0-.6-.4-1-1-1-.5 0-1 .4-1 1M44 261c0 .5.5 1 1 1 .6 0 1-.5 1-1 0-.6-.4-1-1-1-.5 0-1 .4-1 1M47 267c0 .5.5 1 1 1 .6 0 1-.5 1-1 0-.6-.4-1-1-1-.5 0-1 .4-1 1M51.5 267c-.3.5-.1 1 .4 1 .6 0 1.1-.5 1.1-1 0-.6-.2-1-.4-1-.3 0-.8.4-1.1 1M48 271c0 .5.7 1 1.6 1 .8 0 1.2-.5.9-1-.3-.6-1-1-1.6-1-.5 0-.9.4-.9 1M53 271c0 .5.5 1 1 1 .6 0 1-.5 1-1 0-.6-.4-1-1-1-.5 0-1 .4-1 1M60.6 271.9c-.4.5-.2 1.2.3 1.5.5.4 1.2.2 1.5-.3.4-.5.2-1.2-.3-1.5-.5-.4-1.2-.2-1.5.3M53 275.4c0 .2.7.9 1.5 1.6.9.7 1.5.8 1.5.2 0-.5-.7-1.2-1.5-1.6-.8-.3-1.5-.4-1.5-.2M78.5 277c-.3.5-.1 1 .4 1 .6 0 1.1-.5 1.1-1 0-.6-.2-1-.4-1-.3 0-.8.4-1.1 1M58 279c0 .5.7 1 1.6 1 .8 0 1.2-.5.9-1-.3-.6-1-1-1.6-1-.5 0-.9.4-.9 1M66 283c0 .5.5 1 1 1 .6 0 1-.5 1-1 0-.6-.4-1-1-1-.5 0-1 .4-1 1M86 287.1c0 .5.5.7 1 .4.6-.3 1-.8 1-1.1 0-.2-.4-.4-1-.4-.5 0-1 .5-1 1.1M117 288c0 .5.5 1 1 1 .6 0 1-.5 1-1 0-.6-.4-1-1-1-.5 0-1 .4-1 1M117 306c0 .5.5 1 1 1 .6 0 1-.5 1-1 0-.6-.4-1-1-1-.5 0-1 .4-1 1M129 306.1c0 .5.5.7 1 .4.6-.3 1-.8 1-1.1 0-.2-.4-.4-1-.4-.5 0-1 .5-1 1.1M171 307c0 .5.5 1 1.1 1 .5 0 .7-.5.4-1-.3-.6-.8-1-1.1-1-.2 0-.4.4-.4 1M157 327c0 .5.5 1 1 1 .6 0 1-.5 1-1 0-.6-.4-1-1-1-.5 0-1 .4-1 1M263.464 372.83l-.362.01h-.001l-.033.052z"/></svg>